<svg width="28" height="22" viewBox="0 0 28 22" fill="none" xmlns="http://www.w3.org/2000/svg">
<path d="M2.8 22C2.03 22 1.37107 21.731 0.8232 21.1929C0.275333 20.6548 0.000933333 20.0072 0 19.25V2.75C0 1.99375 0.2744 1.34658 0.8232 0.8085C1.372 0.270416 2.03093 0.000916667 2.8 0H25.2C25.97 0 26.6294 0.2695 27.1782 0.8085C27.727 1.3475 28.0009 1.99467 28 2.75V19.25C28 20.0062 27.7261 20.6539 27.1782 21.1929C26.6303 21.7319 25.9709 22.0009 25.2 22H2.8ZM14.3682 12.0835C14.4961 12.0487 14.6183 11.9969 14.735 11.9281L24.64 5.84375C24.8267 5.72917 24.9667 5.58617 25.06 5.41475C25.1533 5.24333 25.2 5.05404 25.2 4.84687C25.2 4.38854 25.0017 4.04479 24.605 3.81562C24.2083 3.58646 23.8 3.59792 23.38 3.85L14 9.625L4.62 3.85C4.2 3.59792 3.79167 3.59242 3.395 3.8335C2.99833 4.07458 2.8 4.41237 2.8 4.84687C2.8 5.07604 2.84667 5.27679 2.94 5.44912C3.03333 5.62146 3.17333 5.753 3.36 5.84375L13.265 11.9281C13.3817 11.9969 13.5044 12.0487 13.6332 12.0835C13.762 12.1183 13.8843 12.1353 14 12.1344C14.1157 12.1335 14.2385 12.1165 14.3682 12.0835Z" fill="black"/>
</svg>
